#!OML:ASF F:\VICON\USERDATA\INSTALL\rory3\rory3.ASF
:FULLY-SPECIFIED
:DEGREES
322
root 2.83799 10.004 -4.8326 -15.2711 -47.0346 3.69945
lowerback 26.4881 2.42566 -2.37345
upperback 10.9329 2.11597 1.26241
thorax -2.65473 0.740026 2.14914
lowerneck -13.4365 2.10238 -10.684
upperneck 31.516 5.04211 1.66186
head 12.3805 1.05026 3.15535
rclavicle 9.8796e-014 -1.63003e-014
rhumerus -24.5309 34.1806 -80.506
rradius 97.5203
rwrist 41.7307
rhand -34.8834 8.11065
rfingers 7.12502
rthumb -8.03222 -21.7167
lclavicle 9.8796e-014 -1.63003e-014
lhumerus -18.5612 -37.9207 79.5016
lradius 83.6729
lwrist -15.7874
lhand -35.6942 11.0636
lfingers 7.12502
lthumb -8.8147 40.8595
rfemur -80.8492 -11.4293 7.74248
rtibia 110.892
rfoot -6.8636 -9.08709
rtoes 13.7817
lfemur -75.5832 15.6516 -10.751
ltibia 105.457
lfoot -9.14074 -0.373201
ltoes -20.7502
323
root 2.85153 9.99948 -4.85321 -15.7741 -47.075 3.88159
lowerback 26.4896 2.45827 -2.55618
upperback 10.8691 2.11894 1.29102
thorax -2.73273 0.738539 2.28316
lowerneck -13.6269 2.13954 -10.7285
upperneck 31.4866 5.0959 1.79665
head 12.3961 1.08767 3.2255
rclavicle 6.99722e-014 -2.70347e-014
rhumerus -24.5858 34.4979 -80.4787
rradius 97.5028
rwrist 41.7203
rhand -34.5959 8.2342
rfingers 7.12502
rthumb -7.75477 -21.6036
lclavicle 6.99722e-014 -2.70347e-014
lhumerus -18.7179 -37.8699 79.8207
lradius 83.3809
lwrist -15.7686
lhand -35.6704 11.3077
lfingers 7.12502
lthumb -8.79175 41.1046
rfemur -80.8734 -11.4296 8.07479
rtibia 110.791
rfoot -6.44782 -7.73948
rtoes 16.3252
lfemur -75.1818 15.6007 -10.7609
ltibia 105.391
lfoot -9.0777 -0.290571
ltoes -20.9379
324
root 2.86627 9.99566 -4.87042 -16.1368 -47.1119 3.84751
lowerback 26.4913 2.41612 -2.49356
upperback 10.8532 2.08148 1.31025
thorax -2.74799 0.721698 2.27867
lowerneck -13.7765 2.18453 -10.7494
upperneck 31.3336 5.16102 1.88404
head 12.3543 1.13458 3.27021
rclavicle -2.92213e-014 -1.55052e-014
rhumerus -24.5883 34.6829 -80.5056
rradius 97.4304
rwrist 41.7824
rhand -34.482 8.25711
rfingers 7.12502
rthumb -7.64486 -21.5847
lclavicle -2.92213e-014 -1.55052e-014
lhumerus -18.8153 -37.7277 80.0314
lradius 83.1127
lwrist -15.9236
lhand -35.7196 11.0963
lfingers 7.12502
lthumb -8.83921 40.8912
rfemur -80.8069 -11.474 8.62881
rtibia 110.589
rfoot -6.31961 -6.67183
rtoes 16.6268
lfemur -74.8067 15.5265 -10.6196
ltibia 105.343
lfoot -8.97876 -0.230591
ltoes -20.916
325
root 2.8797 9.99225 -4.88305 -16.4925 -47.0848 3.91071
lowerback 26.4152 2.38382 -2.43726
upperback 10.8105 2.05823 1.28308
thorax -2.75563 0.714732 2.22416
lowerneck -13.8945 2.20632 -10.604
upperneck 31.167 5.16164 1.91199
head 12.3112 1.16567 3.2548
rclavicle -7.15625e-015 -2.3059e-014
rhumerus -24.6249 34.7329 -80.5846
rradius 97.3205
rwrist 41.7871
rhand -34.2823 8.25304
rfingers 7.12502
rthumb -7.45209 -21.5957
lclavicle -7.15625e-015 -2.3059e-014
lhumerus -18.9885 -37.6457 80.2548
lradius 82.9735
lwrist -16.2747
lhand -35.4857 11.0784
lfingers 7.12502
lthumb -8.61349 40.8827
rfemur -80.8365 -11.6667 9.19565
rtibia 110.352
rfoot -6.24214 -5.58991
rtoes 15.7053
lfemur -74.4729 15.3657 -10.5766
ltibia 105.279
lfoot -8.8849 -0.137996
ltoes -20.1618
326
root 2.8935 9.98316 -4.89622 -16.884 -47.0344 4.05803
lowerback 26.3767 2.35275 -2.38314
upperback 10.7591 2.03144 1.18772
thorax -2.78817 0.708006 2.09694
lowerneck -14.189 2.22256 -10.3054
upperneck 31.1373 5.15898 1.88353
head 12.367 1.19637 3.20117
rclavicle 2.72335e-014 1.03368e-014
rhumerus -24.6432 34.6842 -80.7171
rradius 97.1544
rwrist 41.6552
rhand -33.941 8.6742
rfingers 7.12502
rthumb -7.12257 -21.1859
lclavicle 2.72335e-014 1.03368e-014
lhumerus -19.158 -37.6643 80.3325
lradius 82.8767
lwrist -16.6404
lhand -35.1016 10.9636
lfingers 7.12502
lthumb -8.24279 40.7828
rfemur -80.9193 -11.8921 9.71495
rtibia 110.116
rfoot -6.10104 -4.47206
rtoes 14.6094
lfemur -74.2347 15.174 -10.6424
ltibia 105.255
lfoot -8.77649 0.0552191
ltoes -19.8971
327
root 2.90694 9.9749 -4.90916 -17.2864 -47.0109 4.12883
lowerback 26.4813 2.35136 -2.26095
upperback 10.6612 2.05652 1.1057
thorax -2.94136 0.730119 1.92762
lowerneck -14.3547 2.21189 -9.95097
upperneck 31.076 5.07088 1.88598
head 12.3886 1.20243 3.13395
rclavicle -2.84262e-014 -1.07344e-014
rhumerus -24.8593 34.5836 -80.9003
rradius 97.0604
rwrist 41.4954
rhand -33.7653 8.59697
rfingers 7.12502
rthumb -6.95297 -21.2688
lclavicle -2.84262e-014 -1.07344e-014
lhumerus -19.5102 -37.8544 80.5413
lradius 82.8329
lwrist -16.6645
lhand -34.8755 11.2913
lfingers 7.12502
lthumb -8.02463 41.1189
rfemur -80.9239 -12.0764 10.2797
rtibia 109.876
rfoot -6.37828 -3.67704
rtoes 12.5394
lfemur -73.9325 15.0244 -10.5789
ltibia 105.233
lfoot -8.69879 0.0544528
ltoes -19.353
328
root 2.92164 9.96394 -4.91723 -17.5169 -47.0326 3.93369
lowerback 26.6402 2.2964 -1.95589
upperback 10.5016 2.06553 1.14353
thorax -3.18651 0.747872 1.78683
lowerneck -14.29 2.24385 -9.89491
upperneck 31.0095 5.05295 2.01328
head 12.3432 1.22263 3.16674
rclavicle 4.19436e-014 1.70955e-014
rhumerus -25.2663 34.6148 -80.9769
rradius 97.0036
rwrist 41.4282
rhand -33.8426 8.51821
rfingers 7.12502
rthumb -7.02765 -21.3451
lclavicle 4.19436e-014 1.70955e-014
lhumerus -19.9514 -38.0582 80.9687
lradius 82.6511
lwrist -16.7844
lhand -35.0863 11.5111
lfingers 7.12502
lthumb -8.22805 41.3309
rfemur -80.8216 -12.1981 11.0346
rtibia 109.539
rfoot -6.68238 -2.69294
rtoes 10.4685
lfemur -73.6412 14.9318 -10.3399
ltibia 105.284
lfoot -8.69492 0.0158285
ltoes -19.3463
329
root 2.93414 9.94523 -4.9128 -17.6699 -46.9596 3.95417
lowerback 26.4268 2.18651 -1.79363
upperback 10.4088 1.9792 1.17055
thorax -3.18072 0.713395 1.75057
lowerneck -14.4552 2.28357 -9.98111
upperneck 30.9355 5.11566 2.15097
head 12.334 1.263 3.24425
rclavicle -1.05356e-014 7.95139e-015
rhumerus -25.3648 34.7059 -80.8639
rradius 96.8754
rwrist 41.495
rhand -33.7546 8.67795
rfingers 7.12502
rthumb -6.9427 -21.1882
lclavicle -1.05356e-014 7.95139e-015
lhumerus -20.1768 -38.0077 81.3238
lradius 82.396
lwrist -17.0968
lhand -34.9755 11.6821
lfingers 7.12502
lthumb -8.12117 41.5061
rfemur -81.044 -12.504 11.6916
rtibia 109.242
rfoot -6.74805 -1.70114
rtoes 7.54929
lfemur -73.6865 14.7623 -10.4449
ltibia 105.434
lfoot -8.66363 0.245961
ltoes -19.8894
330
root 2.94465 9.92874 -4.91288 -17.7514 -46.9323 3.87091
lowerback 26.2145 2.08466 -1.66779
upperback 10.3871 1.89101 1.24015
thorax -3.09892 0.672853 1.78244
lowerneck -14.8361 2.37005 -9.92239
upperneck 30.8427 5.26672 2.19088
head 12.3632 1.34677 3.27785
rclavicle 5.38706e-014 -5.56597e-014
rhumerus -25.253 34.8238 -80.6703
rradius 96.6899
rwrist 41.6791
rhand -33.6186 8.99443
rfingers 7.12502
rthumb -6.81135 -20.876
lclavicle 5.38706e-014 -5.56597e-014
lhumerus -20.2803 -37.7787 81.5392
lradius 82.171
lwrist -17.3143
lhand -34.8548 11.5138
lfingers 7.12502
lthumb -8.00464 41.3422
rfemur -81.2416 -12.8052 12.5485
rtibia 108.901
rfoot -6.94011 -0.960498
rtoes 4.02161
lfemur -73.7105 14.6572 -10.4107
ltibia 105.552
lfoot -8.58552 0.34232
ltoes -19.7828
331
root 2.95435 9.91854 -4.9195 -18.1237 -46.9212 4.07404
lowerback 26.0942 2.08898 -1.80258
upperback 10.3682 1.87247 1.2932
thorax -3.06721 0.66046 1.92407
lowerneck -14.9985 2.4511 -9.90908
upperneck 30.635 5.37128 2.28776
head 12.2994 1.42011 3.32438
rclavicle 1.17283e-014 1.11319e-014
rhumerus -25.2751 34.9365 -80.416
rradius 96.5664
rwrist 41.968
rhand -33.672 8.91826
rfingers 7.12502
rthumb -6.86291 -20.9505
lclavicle 1.17283e-014 1.11319e-014
lhumerus -20.372 -37.632 81.7294
lradius 81.9311
lwrist -17.3379
lhand -34.9217 11.156
lfingers 7.12502
lthumb -8.06924 40.982
rfemur -81.3299 -13.0536 13.1759
rtibia 108.519
rfoot -7.12536 -0.0934866
rtoes 2.31004
lfemur -73.5613 14.5758 -10.5411
ltibia 105.618
lfoot -8.51779 0.5095
ltoes -19.4713
332
root 2.96779 9.90747 -4.92575 -18.6761 -46.951 4.38263
lowerback 26.1109 2.11284 -1.9134
upperback 10.3467 1.87813 1.30848
thorax -3.10265 0.661089 2.00204
lowerneck -15.0226 2.50424 -9.99707
upperneck 30.3972 5.41818 2.46816
head 12.1928 1.46975 3.40627
rclavicle -4.4329e-014 4.45278e-014
rhumerus -25.3765 35.0127 -80.2005
rradius 96.4176
rwrist 42.2044
rhand -33.8665 8.85895
rfingers 7.12502
rthumb -7.05068 -21.0036
lclavicle -4.4329e-014 4.45278e-014
lhumerus -20.5109 -37.5848 81.975
lradius 81.704
lwrist -17.1128
lhand -34.8765 10.921
lfingers 7.12502
lthumb -8.0256 40.7486
rfemur -81.2769 -13.264 13.6908
rtibia 108.104
rfoot -7.13993 0.880942
rtoes 1.74561
lfemur -73.2613 14.5403 -10.7519
ltibia 105.713
lfoot -8.5295 0.796576
ltoes -20.0411
333
root 2.97888 9.89712 -4.93082 -19.3371 -47.0005 4.77481
lowerback 26.1218 2.15493 -2.22975
upperback 10.3825 1.8575 1.38131
thorax -3.07765 0.639697 2.26849
lowerneck -15.2412 2.61971 -10.1098
upperneck 30.2598 5.59118 2.64758
head 12.1568 1.56608 3.51757
rclavicle 3.57812e-015 1.59028e-015
rhumerus -25.1917 35.1928 -79.8855
rradius 96.1722
rwrist 42.4529
rhand -33.9489 8.82348
rfingers 7.12502
rthumb -7.13021 -21.0364
lclavicle 3.57812e-015 1.59028e-015
lhumerus -20.6813 -37.3088 82.2532
lradius 81.579
lwrist -17.0606
lhand -34.7954 10.4313
lfingers 7.12502
lthumb -7.94735 40.2619
rfemur -81.1561 -13.4056 14.1531
rtibia 107.667
rfoot -7.20812 1.73838
rtoes 1.67685
lfemur -72.8748 14.5372 -10.9462
ltibia 105.805
lfoot -8.58362 0.956207
ltoes -20.0462
334
root 2.98767 9.88307 -4.92997 -19.6556 -47.0298 4.78142
lowerback 26.15 2.07938 -2.43639
upperback 10.3437 1.72207 1.58257
thorax -3.13674 0.564383 2.64387
lowerneck -15.4536 2.83227 -10.1391
upperneck 30.1309 5.94775 2.60133
head 12.1224 1.7225 3.55379
rclavicle -1.03766e-013 3.18055e-014
rhumerus -25.0759 35.6495 -79.5513
rradius 95.8747
rwrist 42.6214
rhand -34.0536 9.11749
rfingers 7.12502
rthumb -7.23129 -20.739
lclavicle -1.03766e-013 3.18055e-014
lhumerus -20.9426 -36.7747 82.6682
lradius 81.3158
lwrist -16.9343
lhand -34.5027 9.76944
lfingers 7.12502
lthumb -7.66479 39.6105
rfemur -81.0435 -13.5766 14.9336
rtibia 107.175
rfoot -7.41008 2.2936
rtoes -0.302646
lfemur -72.6571 14.5174 -10.8836
ltibia 105.958
lfoot -8.61894 0.971421
ltoes -19.7411
335
root 2.99824 9.86741 -4.92752 -19.459 -47.1294 4.16808
lowerback 26.1345 1.93885 -2.15304
upperback 10.2912 1.62982 1.91599
thorax -3.1844 0.519727 2.87097
lowerneck -15.6168 2.97437 -10.1865
upperneck 30.0088 6.21471 2.51367
head 12.09 1.83142 3.56454
rclavicle -5.68524e-014 9.54166e-015
rhumerus -25.0349 36.0091 -79.098
rradius 95.7024
rwrist 42.8569
rhand -33.9418 9.34728
rfingers 7.12502
rthumb -7.12335 -20.5128
lclavicle -5.68524e-014 9.54166e-015
lhumerus -21.2046 -36.4373 83.143
lradius 81.1691
lwrist -16.6821
lhand -34.1858 9.49448
lfingers 7.12502
lthumb -7.35893 39.3465
rfemur -80.8918 -13.6688 16.0941
rtibia 106.629
rfoot -7.58656 2.6793
rtoes -2.22067
lfemur -72.7008 14.5058 -10.4275
ltibia 106.169
lfoot -8.47058 1.07558
ltoes -19.5592
336
root 3.00758 9.84866 -4.92204 -19.434 -47.1633 3.88813
lowerback 25.986 1.85191 -1.96031
upperback 10.279 1.58011 2.12588
thorax -3.12493 0.495315 3.00442
lowerneck -15.7314 3.04781 -10.1477
upperneck 29.8501 6.35193 2.42194
head 12.0458 1.89436 3.53977
rclavicle -5.56597e-015 -8.74653e-015
rhumerus -24.8478 36.0679 -78.6566
rradius 95.4641
rwrist 43.1256
rhand -33.9258 9.65725
rfingers 7.12502
rthumb -7.10794 -20.2034
lclavicle -5.56597e-015 -8.74653e-015
lhumerus -21.2135 -36.34 83.4077
lradius 80.9816
lwrist -16.4189
lhand -33.7804 9.20704
lfingers 7.12502
lthumb -6.96756 39.0724
rfemur -80.8388 -13.8622 16.9762
rtibia 106.114
rfoot -7.71877 2.99339
rtoes -2.37629
lfemur -72.7959 14.4704 -10.3082
ltibia 106.393
lfoot -8.23558 1.38459
ltoes -18.7373
